<?xml version="1.0" encoding="utf-8"?>
<!-- Generator: Adobe Illustrator 24.3.0, SVG Export Plug-In . SVG Version: 6.00 Build 0)  -->
<svg version="1.1" xmlns="http://www.w3.org/2000/svg" xmlns:xlink="http://www.w3.org/1999/xlink" x="0px" y="0px"
	 viewBox="0 0 1140.6 787.3" style="enable-background:new 0 0 1140.6 787.3;" xml:space="preserve">
<style type="text/css">
	.st0{fill:none;}
	.st1{fill-rule:evenodd;clip-rule:evenodd;fill:url(#云_2_);}
	.st2{fill-rule:evenodd;clip-rule:evenodd;fill:url(#云_3_);}
	.st3{fill-rule:evenodd;clip-rule:evenodd;fill:#CCDCF6;}
	.st4{fill:url(#路径-42_1_);}
	.st5{fill:url(#路径-41_1_);}
	.st6{fill:url(#路径-43_1_);}
	.st7{fill:url(#路径-44_1_);}
	.st8{fill:url(#路径-45_1_);}
	.st9{fill:url(#路径-46_1_);}
	.st10{fill:url(#路径-47_1_);}
	.st11{fill:url(#路径-2_1_);}
	.st12{fill:url(#路径-2备份_1_);}
	.st13{fill:url(#路径_5_);}
	.st14{fill:url(#路径_6_);}
	.st15{fill:#BFD4FA;}
	.st16{fill:url(#路径_7_);}
	.st17{fill:#5792F0;}
	.st18{fill:#FFFFFF;}
	.st19{fill:url(#椭圆形_7_);}
	.st20{fill:url(#路径_8_);}
	.st21{fill:url(#矩形_5_);}
	.st22{fill:url(#三角形_2_);}
	.st23{opacity:0.2;}
	.st24{fill-rule:evenodd;clip-rule:evenodd;fill:url(#三角形_3_);}
	.st25{fill-rule:evenodd;clip-rule:evenodd;fill:url(#矩形_6_);}
	.st26{display:none;}
	.st27{display:inline;fill-rule:evenodd;clip-rule:evenodd;fill:#CCDCF6;}
	.st28{display:inline;}
	.st29{fill-rule:evenodd;clip-rule:evenodd;fill:url(#矩形_7_);}
	.st30{fill-rule:evenodd;clip-rule:evenodd;fill:url(#椭圆形_8_);}
	.st31{fill-rule:evenodd;clip-rule:evenodd;fill:#483029;}
	.st32{display:inline;fill:url(#脚-path_2_);}
	.st33{display:inline;fill:url(#脚-path_3_);}
	.st34{display:inline;fill:url(#腿_1_);}
	.st35{display:inline;fill-rule:evenodd;clip-rule:evenodd;fill:#FEE0BC;}
	.st36{display:inline;fill-rule:evenodd;clip-rule:evenodd;fill:url(#衣服_1_);}
</style>
<g id="b759170a-51c3-4e2f-999d-77dec9fd6d11">
	<g id="加载中">
		<rect id="矩形" x="-57" y="-41.3" class="st0" width="1024" height="1024"/>
		<g id="编组-2" transform="translate(32.000000, 149.000000)">
			<g id="背景">
				
					<linearGradient id="云_2_" gradientUnits="userSpaceOnUse" x1="-168.6998" y1="951.1506" x2="-168.6636" y2="950.7899" gradientTransform="matrix(160 0 0 -92.1212 27716 87556.2578)">
					<stop  offset="0" style="stop-color:#CFDFFA"/>
					<stop  offset="1" style="stop-color:#EAF0FC;stop-opacity:0"/>
				</linearGradient>
				<path id="云" class="st1" d="M810-30.1c0,14.4-13.8,25.9-31.3,25.9H682c-17.5-1.2-32-12.1-32-27.1c0-9.8,6.5-18.4,16-23
					c-0.7-1.7-1.5-3.5-1.5-5.2c0-9.8,9.5-18.4,21.8-18.4c5.1,0,9.5,1.7,13.1,4c8.7-13.2,24.7-22.5,43.6-22.5
					c26.2,0,47.3,17.8,47.3,39.7v2.3C802-50.3,810-41.1,810-30.1z"/>
				
					<linearGradient id="云_3_" gradientUnits="userSpaceOnUse" x1="-168.6793" y1="950.012" x2="-168.6431" y2="949.7118" gradientTransform="matrix(220 0 0 -115.5556 37316 109846.75)">
					<stop  offset="0" style="stop-color:#CFDFFA"/>
					<stop  offset="1" style="stop-color:#EAF0FC;stop-opacity:0"/>
				</linearGradient>
				<path id="云_1_" class="st2" d="M213.3,25.1c24.7,0,45.7,15.8,53.4,37.8l36.8,0c9.7,0,17.5,7.8,17.5,17.5v42.8
					c0,9.7-7.8,17.5-17.5,17.5H125.2c-9.7,0-17.5-7.8-17.5-17.5l0-12.4c-4.2-6.8-6.7-14.8-6.7-23.4c0-24.5,19.9-44.4,44.4-44.4
					c7.9,0,15.4,2.1,21.8,5.7C177.6,34.4,194.4,25.1,213.3,25.1z"/>
				<g id="草" transform="translate(170.000000, 570.000000)">
					<ellipse id="椭圆形_1_" class="st3" cx="-30.2" cy="36.7" rx="12.8" ry="4"/>
					
						<linearGradient id="路径-42_1_" gradientUnits="userSpaceOnUse" x1="-336.8316" y1="377.9785" x2="-336.7588" y2="377.0935" gradientTransform="matrix(29.9972 0 0 -52.3601 10074.2432 19781.2168)">
						<stop  offset="0" style="stop-color:#BFD4FA"/>
						<stop  offset="1" style="stop-color:#5792F0"/>
					</linearGradient>
					<path id="路径-42" class="st4" d="M-43.8,35.1c1.7-29.1,9-46,21.9-50.5c5.1-0.7,10.7-1.7,6.8,4.9s-14.5,4-25,45.7
						C-41.1,36.9-42.3,36.9-43.8,35.1z"/>
					
						<linearGradient id="路径-41_1_" gradientUnits="userSpaceOnUse" x1="-335.8358" y1="379.7055" x2="-335.8164" y2="378.5017" gradientTransform="matrix(22.0871 0 0 -78.1408 7371.6279 29638.1367)">
						<stop  offset="0" style="stop-color:#BFD4FA"/>
						<stop  offset="1" style="stop-color:#5792F0"/>
					</linearGradient>
					<path id="路径-41" class="st5" d="M-44,34.7c-3.4-27.2-6.2-44.3-8.4-51.3c-3.3-10.5-10.2-30.7,4.3-23.1S-32,7.3-38.7,31.2
						C-40.8,37.2-42.5,38.4-44,34.7z"/>
				</g>
				<g id="草_1_" transform="translate(686.120225, 515.426704)">
					
						<linearGradient id="路径-43_1_" gradientUnits="userSpaceOnUse" x1="-856.683" y1="431.7556" x2="-856.4402" y2="430.6015" gradientTransform="matrix(39.2181 0 0 -38.3997 33464.6953 16557.1016)">
						<stop  offset="0" style="stop-color:#BFD4FA"/>
						<stop  offset="1" style="stop-color:#5792F0"/>
					</linearGradient>
					<path id="路径-43" class="st6" d="M-111.1,10.7c-2.5-11.5-9.9-19.5-22.1-24c-13.9-4.5-21.5-9.8-12.8-13.7
						c7.4-0.6,23-6.3,34.9,27.9C-110.3,4.2-110.3,7.4-111.1,10.7z"/>
					
						<linearGradient id="路径-44_1_" gradientUnits="userSpaceOnUse" x1="-856.7673" y1="435.0347" x2="-856.7265" y2="433.8309" gradientTransform="matrix(34.3363 0 0 -83.8351 29294.498 36409.4688)">
						<stop  offset="0" style="stop-color:#BFD4FA"/>
						<stop  offset="1" style="stop-color:#5792F0"/>
					</linearGradient>
					<path id="路径-44" class="st7" d="M-110.5,12.5c-7.3-27.4-15.7-47.3-25-59.9c-6.8-8.6-6.4-20.9,0-23.7
						c6.5-0.7,18.5-1.8,27.6,45.3c0.6,3.2,3.8,22.2,0,34.5C-108.5,10.3-109.4,11.6-110.5,12.5z"/>
					
						<linearGradient id="路径-45_1_" gradientUnits="userSpaceOnUse" x1="-857.1124" y1="435.2699" x2="-857.0926" y2="434.0661" gradientTransform="matrix(26.1752 0 0 -91.6754 22329.3164 39829.3164)">
						<stop  offset="0" style="stop-color:#BFD4FA"/>
						<stop  offset="1" style="stop-color:#5792F0"/>
					</linearGradient>
					<path id="路径-45" class="st8" d="M-108.8,6.3c3.3-12.2,2.9-28.2-1.3-47.9c-6.4-19.1-17.2-42.6,2.6-43.1
						c8,1.1,17.7,9.5,14.1,51.4c-2.2,16.9-6.1,26.9-10.2,39.6C-105.1,7.1-106.8,7.1-108.8,6.3z"/>
					
						<linearGradient id="路径-46_1_" gradientUnits="userSpaceOnUse" x1="-856.6843" y1="434.8789" x2="-856.6306" y2="433.675" gradientTransform="matrix(37.293 0 0 -79.3442 31861.1426 34446.0195)">
						<stop  offset="0" style="stop-color:#BFD4FA"/>
						<stop  offset="1" style="stop-color:#5792F0"/>
					</linearGradient>
					<path id="路径-46" class="st9" d="M-105,11c-1.3-34.6,5-59.5,19-74.5c3.8-5,18.2-9.8,18.1,6c-1.5,6.8-4.7,21.3-23.2,43.4
						c-6.1,8-10.1,19.6-10.2,22.4C-101.3,10.1-102.5,11-105,11z"/>
					
						<linearGradient id="路径-47_1_" gradientUnits="userSpaceOnUse" x1="-855.9533" y1="428.3554" x2="-855.7105" y2="428.301" gradientTransform="matrix(120 0 0 -25.5167 102596.4297 10933.6406)">
						<stop  offset="0" style="stop-color:#BFD4FA"/>
						<stop  offset="1" style="stop-color:#5792F0"/>
					</linearGradient>
					<path id="路径-47" class="st10" d="M-177,15.6c13.9-2.6,21.5-4.8,22.9-6.6c2.1-2.7,21-14.3,32.8-4.5c2.6-3.3,10.8-5.9,15.5,0
						c2.2-9.2,15.6-15.2,21.4-14.2c6.6-0.5,26-0.3,27.4,25.3C-62.3,15.7-102.3,15.7-177,15.6z"/>
				</g>
			</g>
			<g id="火箭" transform="translate(334.607112, 18.000000)">
				
					<linearGradient id="路径-2_1_" gradientUnits="userSpaceOnUse" x1="-503.1292" y1="931.5608" x2="-502.7636" y2="933.4468" gradientTransform="matrix(93.1513 0 0 -160.3785 46866.7969 149851.5469)">
					<stop  offset="0" style="stop-color:#5792F0"/>
					<stop  offset="1" style="stop-color:#BFD4FA"/>
				</linearGradient>
				<path id="路径-2" class="st11" d="M36.5,86.7c-55.3,33.5-80.7,69-76.2,106.5s11.1,73.4,19.9,107.6
					C-7,317.1,7.8,319,24.6,306.5S64,275,92.2,249.4L36.5,86.7z"/>
				
					<linearGradient id="路径-2备份_1_" gradientUnits="userSpaceOnUse" x1="-506.496" y1="931.5608" x2="-506.1304" y2="933.4468" gradientTransform="matrix(-93.1513 0 0 -160.3785 -46862.8047 149851.5469)">
					<stop  offset="0" style="stop-color:#5792F0"/>
					<stop  offset="1" style="stop-color:#BFD4FA"/>
				</linearGradient>
				<path id="路径-2备份" class="st12" d="M281.1,86.7c55.3,33.5,80.7,69,76.2,106.5c-4.5,37.5-11.1,73.4-19.9,107.6
					c-12.8,16.3-27.6,18.2-44.4,5.7c-16.8-12.5-39.4-31.5-67.6-57.1L281.1,86.7z"/>
				
					<linearGradient id="路径_5_" gradientUnits="userSpaceOnUse" x1="-502.9469" y1="932.8087" x2="-503.3712" y2="934.423" gradientTransform="matrix(177.5063 0 0 -291.1726 89482.5 272025.375)">
					<stop  offset="0" style="stop-color:#5792F0"/>
					<stop  offset="1" style="stop-color:#BFD4FA"/>
				</linearGradient>
				<path id="路径" class="st13" d="M229.5,271.8C361.1,73.7,211.8-95,168.3-137.6c-5.9-5.8-16.5-5.9-22.5-0.2
					c-44.2,41.9-195.4,208-61.2,409.6H229.5z"/>
				
					<linearGradient id="路径_6_" gradientUnits="userSpaceOnUse" x1="-502.7155" y1="930.7874" x2="-502.7155" y2="932.4003" gradientTransform="matrix(112.1092 0 0 -68.5112 56515.168 63765.0859)">
					<stop  offset="0" style="stop-color:#5792F0"/>
					<stop  offset="1" style="stop-color:#BFD4FA"/>
				</linearGradient>
				<path id="路径_1_" class="st14" d="M167.8-137.6c-5.6-5.8-15.7-5.9-21.5-0.2c-15.7,15.4-45.3,47.8-69.8,93.2h159.3
					C211.6-89.4,182.9-122,167.8-137.6z"/>
				<path id="路径_2_" class="st15" d="M229.6,271.8c4.6-6.7,8.9-13.3,12.8-19.9H72c4,6.6,7.9,13.2,12.5,19.9H229.6z"/>
				
					<linearGradient id="路径_7_" gradientUnits="userSpaceOnUse" x1="-505.8129" y1="931.2793" x2="-504.2969" y2="932.7006" gradientTransform="matrix(81.7668 -81.7668 -82.8434 -82.8434 118663.4609 36253.1758)">
					<stop  offset="0" style="stop-color:#5792F0"/>
					<stop  offset="1" style="stop-color:#BFD4FA"/>
				</linearGradient>
				<path id="路径_3_" class="st16" d="M232.9,380.3c-1,4.4-1,8.2-3.7,11c-1.1,1.1-2.4,2-4.1,2.8c-6,2.8-11.4,1.6-16.2-2.7
					c-3-2.8-5.9-5.7-8.8-8.5c-3.5-3.3-4.8-4.5-6.2-3.2c-0.7,0.7-1.5,2.2-2.6,4.5c-7,13.9-13.9,27.8-20.9,41.8
					c-1,2.1-2.3,4.1-3.8,5.6c-1.5,1.5-3.3,2.6-5.6,3.3c-7,2-13.1-0.8-16.8-8.1c-7.3-14.2-14.3-28.5-21.5-42.8
					c-3.1-6.2-3.3-6.2-8.4-1.3c-3.1,3-6.1,6.1-9.2,8.9c-4.6,4.2-9.9,5.2-15.7,2.7c-5.6-2.5-6.3-7.3-8.2-13
					c-9.8-28.9-0.8-67.6,0-71.7c0.7-3.4,1-6.7,3.3-8.9c0.2-0.2,0.5-0.5,0.7-0.6c5.3-5.2,10.6-5.8,17.9-2.3
					c28.6,13.8,58.2,16.3,88.7,7.6c6.7-2,13.2-4.5,19.5-7.6c11.4-5.6,21.6,7.6,21.6,13.4C238.2,330.7,241.6,342.2,232.9,380.3z"/>
				<polygon id="矩形_1_" class="st17" points="84.6,271.8 229.2,271.8 229.2,291.8 84.6,291.8 				"/>
				<circle id="椭圆形_2_" class="st18" cx="156.4" cy="57.2" r="66.4"/>
				
					<linearGradient id="椭圆形_7_" gradientUnits="userSpaceOnUse" x1="-500.9963" y1="929.6558" x2="-501.9965" y2="932.0408" gradientTransform="matrix(62.2829 0 0 -62.2829 31397.5723 58048.6211)">
					<stop  offset="0" style="stop-color:#5792F0"/>
					<stop  offset="1" style="stop-color:#BFD4FA"/>
				</linearGradient>
				<circle id="椭圆形_3_" class="st19" cx="156.4" cy="57.2" r="44.3"/>
				
					<linearGradient id="路径_8_" gradientUnits="userSpaceOnUse" x1="-499.7599" y1="931.283" x2="-499.7599" y2="933.1937" gradientTransform="matrix(35.8127 0 0 -116.7805 18052.748 109145.9844)">
					<stop  offset="0" style="stop-color:#5792F0"/>
					<stop  offset="1" style="stop-color:#BFD4FA"/>
				</linearGradient>
				<path id="路径_4_" class="st20" d="M155.1,190c0,0-57.3,46.1-0.3,166C212.4,237.3,155.1,190,155.1,190z"/>
			</g>
			<g id="编组" transform="translate(256.000000, 396.000000)">
				
					<linearGradient id="矩形_5_" gradientUnits="userSpaceOnUse" x1="-419.1606" y1="554.0675" x2="-419.1726" y2="555.5187" gradientTransform="matrix(12 0 0 -128 5024 71098.3203)">
					<stop  offset="0" style="stop-color:#5792F0"/>
					<stop  offset="1" style="stop-color:#BFD4FA"/>
				</linearGradient>
				<rect id="矩形_2_" x="-12" y="6.7" class="st21" width="12" height="128"/>
				
					<linearGradient id="三角形_2_" gradientUnits="userSpaceOnUse" x1="-424.1715" y1="553.5281" x2="-425.5355" y2="554.5943" gradientTransform="matrix(109.0362 0 0 -94.0311 46312.8945 52092.6211)">
					<stop  offset="0" style="stop-color:#5792F0"/>
					<stop  offset="1" style="stop-color:#BFD4FA"/>
				</linearGradient>
				<path id="三角形" class="st22" d="M-4.3-66.4l52.5,90c0.6,1,0.2,2.2-0.7,2.7c-0.3,0.2-0.7,0.3-1,0.3h-105c-1.1,0-2-0.9-2-2
					c0-0.4,0.1-0.7,0.3-1l52.5-90c0.6-1,1.8-1.3,2.7-0.7C-4.7-66.9-4.5-66.7-4.3-66.4z"/>
				<path id="形状" class="st18" d="M-2-4.8c-0.5,1.5-1.5,2.5-3,2.5s-2.5-1-3-2.5l-2-27.5c0-3,2.5-5,5-5c3,0,5,2.5,5,5.5L-2-4.8z
					 M-5,2.7c3,0,5,2,5,5s-2,5-5,5s-5-2-5-5S-8,2.7-5,2.7z"/>
			</g>
			
				<g id="编组备份" transform="translate(398.089293, 645.458109) rotate(118.000000) translate(-398.089293, -645.458109) translate(353.089293, 543.927423)" class="st23">
				
					<linearGradient id="三角形_3_" gradientUnits="userSpaceOnUse" x1="583.1324" y1="454.7415" x2="581.4608" y2="454.7415" gradientTransform="matrix(-41.1764 -82.3687 -77.4414 43.7962 59329.2695 28252.5254)">
					<stop  offset="0" style="stop-color:#EAF0FC"/>
					<stop  offset="1" style="stop-color:#CFDFFA"/>
				</linearGradient>
				<path id="三角形_1_" class="st24" d="M14.7,91.2l41.9,89.3c0.5,1,0,2.2-1,2.7c-0.3,0.1-0.6,0.2-0.8,0.2h-83.7
					c-1.1,0-2-0.9-2-2c0-0.3,0.1-0.6,0.2-0.8l41.9-89.3c0.5-1,1.7-1.4,2.7-1C14.2,90.4,14.5,90.7,14.7,91.2z"/>
				
					<linearGradient id="矩形_6_" gradientUnits="userSpaceOnUse" x1="575.1252" y1="440.8119" x2="573.4537" y2="440.8119" gradientTransform="matrix(-4.6947 -113.0173 -8.8295 60.0924 6613.3232 38736.0078)">
					<stop  offset="0" style="stop-color:#EAF0FC"/>
					<stop  offset="1" style="stop-color:#CFDFFA"/>
				</linearGradient>
				<polygon id="矩形_3_" class="st25" points="5.9,162.4 15.9,162.4 15.9,290.4 5.9,290.4 				"/>
				<path id="形状_1_" class="st18" d="M14.6,150.4c-0.4,1.5-1.2,2.5-2.4,2.5c-1.2,0-2-1-2.4-2.5l-1.6-27.5c0-3,2-5,4-5
					c2.4,0,4,2.5,4,5.5L14.6,150.4z M12.2,157.9c2.4,0,4,2,4,5c0,3-1.6,5-4,5c-2.4,0-4-2-4-5C8.2,159.9,9.8,157.9,12.2,157.9z"/>
			</g>
			
				<g id="人物" transform="translate(614.000000, 520.852281) scale(-1, 1) translate(-614.000000, -520.852281) translate(564.000000, 397.704562)" class="st26">
				<ellipse id="椭圆形_4_" class="st27" cx="107" cy="189" rx="50" ry="-16"/>
				<g id="头" transform="translate(2.000000, 0.000000)" class="st28">
					
						<linearGradient id="矩形_7_" gradientUnits="userSpaceOnUse" x1="837.708" y1="529.4" x2="837.708" y2="527.3322" gradientTransform="matrix(-13.0477 0 0 -10.4381 11019.8555 5518.9238)">
						<stop  offset="0" style="stop-color:#FFCDA5"/>
						<stop  offset="1" style="stop-color:#FFE8D1"/>
					</linearGradient>
					<rect id="矩形_4_" x="83.2" y="3.4" class="st29" width="13" height="-10.4"/>
					
						<linearGradient id="椭圆形_8_" gradientUnits="userSpaceOnUse" x1="838.1857" y1="549.4185" x2="838.2383" y2="548.529" gradientTransform="matrix(-24.3621 9.3517 -13.0924 -34.1069 27692.1816 10864.1367)">
						<stop  offset="0" style="stop-color:#FFF2DF"/>
						<stop  offset="1" style="stop-color:#FEE0BC"/>
					</linearGradient>
					<path id="椭圆形_5_" class="st30" d="M79.7-36.7c6.7-2.6,15.1,3,18.7,12.4c3.6,9.4,1.1,19.1-5.6,21.7s-15.1-3-18.7-12.4
						S73-34.1,79.7-36.7z"/>
					<path id="路径-59" class="st31" d="M93.7-34.6c3.5,6,1.6,11.1-5.8,15.3c-6.3-2.5-6.3,6.5,0.7,10.5c-1,3.6-0.9,8.1-8.5,8.4
						c-6.8-1.2-19.7-3.9-15.4-26.5c2.5-9.6,9.8-12.6,15.6-12.9C86.8-39.8,91.3-38.1,93.7-34.6z"/>
					<circle id="椭圆形_6_" class="st31" cx="64.8" cy="-33.1" r="7.8"/>
				</g>
				
					<linearGradient id="脚-path_2_" gradientUnits="userSpaceOnUse" x1="837.4427" y1="527.579" x2="838.2992" y2="527.3303" gradientTransform="matrix(-22.7593 0 0 -9.9158 19141.3672 5411.4575)">
					<stop  offset="0" style="stop-color:#BFD4FA"/>
					<stop  offset="1" style="stop-color:#5792F0"/>
				</linearGradient>
				<path id="脚-path" class="st32" d="M79.1,175.7v8.7c1.1,0.5,2.2,0.8,3.4,0.9c1.7,0.2,4,0.3,4,0.3s3.7-0.7,7.4-1.9
					c3.9-1.2,7.7-2.8,7.7-2.8s0.7-2.7-0.9-3.4c-2.3-1.1-7.1-0.3-7.1-0.3s-1.8,0.1-3.1,0c-0.6,0-1.1-0.3-1.5-0.6
					c-1.8,0.2-3.5,0.2-5.3,0C82.2,176.5,80.6,176.1,79.1,175.7L79.1,175.7z"/>
				
					<linearGradient id="脚-path_3_" gradientUnits="userSpaceOnUse" x1="837.4574" y1="530.6661" x2="838.314" y2="530.3514" gradientTransform="matrix(-22.7589 0 0 -11.1552 19184.7246 6112.5088)">
					<stop  offset="0" style="stop-color:#BFD4FA"/>
					<stop  offset="1" style="stop-color:#5792F0"/>
				</linearGradient>
				<path id="脚-path_1_" class="st33" d="M122.8,189.4v8.7c1.1,0.5,2.2,0.8,3.4,0.9c1.7,0.2,4,0.3,4,0.3s3.7-0.7,7.4-1.9
					c3.9-1.2,7.7-2.8,7.7-2.8s0.7-2.7-0.9-3.4c-2.3-1.1-7.1-0.3-7.1-0.3s-1.8,0.1-3.1,0c-0.9-0.1-1.9-2.8-1.9-2.8s-2,0.6-5,1.2
					C125.9,189.7,124.3,189.7,122.8,189.4z"/>
				
					<linearGradient id="腿_1_" gradientUnits="userSpaceOnUse" x1="835.0781" y1="553.591" x2="835.2802" y2="552.2809" gradientTransform="matrix(-57.175 0 0 -117.6843 47840.4883 65186.5234)">
					<stop  offset="0" style="stop-color:#BFD4FA"/>
					<stop  offset="1" style="stop-color:#5792F0"/>
				</linearGradient>
				<path id="腿" class="st34" d="M113.7,72.6c0,0,11.8,43.8,12.2,46.1c0.7,3.6,1.2,7.2,1.5,10.8l5.3,58.9c-1.3,0.7-7.9,2-9.9,1.9
					c0,0-2.4-9.4-7.2-28.2c-1.5-5.5-5.8-30.3-5.8-30.3c0,0-11.6-36.2-12.8-38.1c-0.2,0.9,1.2,37.3-1.2,48.8
					c-4.3,23.2-6.4,34.8-6.4,34.8c-1.8,0.2-8.8-0.7-10.5-1.2c0,0,0.8-9.1,2.3-27.3c0.3-4.8,1.3-23.1,1.1-28c0,0-2.2-15-6.7-44.9
					L113.7,72.6z"/>
				<path id="胳膊-path" class="st35" d="M69.5,30.3l0.3,17.7c0,0,0,1.2,0.9,1.9c1.6,1.1,4.6,1.9,4.6,1.9l-0.3-20.1L69.5,30.3z"/>
				<path id="胳膊-path_1_" class="st35" d="M125.3,14.9l5.3,2.2l7.1-20.1c0.3-0.7,0.4-1.4,0.3-2.2c-0.3-2.7-1.2-6.8-1.2-6.8
					c0-0.7,0.1-1.5,0.3-2.2c1.3-3.5,4.6-10.8,4.6-10.8s0.5-0.7,0.9-0.6c0.6,0.1,1,0.6,0.9,1.2l-1.2,7.4c0,0,3.1,3.3,4.3,5.3
					c0.5,0.8,0.3,1.9,0.3,1.9l-2.8,7.4l-6.8,30.1c0,0-0.2,1.4-0.9,1.9c-0.8,0.6-2.2,0.3-2.2,0.3l-13.9-4.3L125.3,14.9z"/>
				
					<linearGradient id="衣服_1_" gradientUnits="userSpaceOnUse" x1="834.8601" y1="552.0845" x2="834.8601" y2="551.0845" gradientTransform="matrix(-59.5528 0 0 -77.446 49814.0898 42757.7266)">
					<stop  offset="0" style="stop-color:#FEE127"/>
					<stop  offset="1" style="stop-color:#F9AB21"/>
				</linearGradient>
				<path id="衣服" class="st36" d="M86.5,1c1.5,0.7,3,1.1,4.6,1.2c2.1,0.1,4.1,0,6.2-0.3c4.1,1.3,8.1,2.9,12.1,4.6
					c7.6,3.4,16.1,8.4,16.1,8.4c-0.4,2.4-1.1,4.8-1.9,7.1c-0.9,2.3-1.5,3.8-2.7,6l-11.2-3.6c0,0,1.3,13.5,2.5,24.9
					c1.4,13.7,3.1,26,3.1,26s-7,1.4-19.7,2.5c-10.2,0.9-22.6,0.6-22.6,0.6l0.9-45.1l-8-2.7c0,0,2.6-10.1,8.4-19.4
					C77.3,6.5,86.5,1,86.5,1z"/>
			</g>
		</g>
	</g>
</g>
<g id="图层_2" class="st26">
</g>
</svg>
